999
dxfrw 0.6.3
  0
SECTION
  2
HEADER
  9
$ACADVER
  1
AC1021
  9
$DWGCODEPAGE
  3
ANSI_1252
  9
$INSBASE
 10
0
 20
0
 30
0
  9
$EXTMIN
 10
10
 20
10
 30
0
  9
$EXTMAX
 10
200
 20
288.3607158691564
 30
0
  9
$LIMMIN
 10
0
 20
0
  9
$LIMMAX
 10
420
 20
297
  9
$ORTHOMODE
 70
    0
  9
$REGENMODE
 70
    1
  9
$FILLMODE
 70
    1
  9
$QTEXTMODE
 70
    0
  9
$MIRRTEXT
 70
    0
  9
$LTSCALE
 40
1
  9
$ATTMODE
 70
    0
  9
$TEXTSIZE
 40
2.5
  9
$TRACEWID
 40
15.68
  9
$TEXTSTYLE
  7
STANDARD
  9
$CLAYER
  8
volo
  9
$CELTYPE
  6
BYLAYER
  9
$CECOLOR
 62
  256
  9
$CELTSCALE
 40
1
  9
$DISPSILH
 70
    0
  9
$DIMSCALE
 40
2.5
  9
$DIMASZ
 40
2.5
  9
$DIMEXO
 40
0.625
  9
$DIMDLI
 40
3.75
  9
$DIMRND
 40
0
  9
$DIMDLE
 40
0
  9
$DIMEXE
 40
1.25
  9
$DIMTP
 40
0
  9
$DIMTM
 40
0
  9
$DIMTXT
 40
2.5
  9
$DIMCEN
 40
2.5
  9
$DIMTSZ
 40
0
  9
$DIMTOL
 70
    0
  9
$DIMLIM
 70
    0
  9
$DIMTIH
 70
    0
  9
$DIMTOH
 70
    0
  9
$DIMSE1
 70
    0
  9
$DIMSE2
 70
    0
  9
$DIMTAD
 70
    1
  9
$DIMZIN
 70
    8
  9
$DIMBLK
  1

  9
$DIMASO
 70
    1
  9
$DIMSHO
 70
    1
  9
$DIMPOST
  1

  9
$DIMAPOST
  1

  9
$DIMALT
 70
    0
  9
$DIMALTD
 70
    3
  9
$DIMALTF
 40
0.03937
  9
$DIMLFAC
 40
1
  9
$DIMTOFL
 70
    1
  9
$DIMTVP
 40
0
  9
$DIMTIX
 70
    0
  9
$DIMSOXD
 70
    0
  9
$DIMSAH
 70
    0
  9
$DIMBLK1
  1

  9
$DIMBLK2
  1

  9
$DIMSTYLE
  2
STANDARD
  9
$DIMCLRD
 70
    0
  9
$DIMCLRE
 70
    0
  9
$DIMCLRT
 70
    0
  9
$DIMTFAC
 40
1
  9
$DIMGAP
 40
0.625
  9
$DIMJUST
 70
    0
  9
$DIMSD1
 70
    0
  9
$DIMSD2
 70
    0
  9
$DIMTOLJ
 70
    0
  9
$DIMTZIN
 70
    8
  9
$DIMALTZ
 70
    0
  9
$DIMALTTZ
 70
    0
  9
$DIMUPT
 70
    0
  9
$DIMDEC
 70
    1
  9
$DIMTDEC
 70
    2
  9
$DIMALTU
 70
    2
  9
$DIMALTTD
 70
    3
  9
$DIMTXSTY
  7
standard
  9
$DIMAUNIT
 70
    0
  9
$DIMADEC
 70
    0
  9
$DIMALTRND
 40
0
  9
$DIMAZIN
 70
    0
  9
$DIMDSEP
 70
   44
  9
$DIMATFIT
 70
    3
  9
$DIMFRAC
 70
    0
  9
$DIMLDRBLK
  1
STANDARD
  9
$DIMLUNIT
 70
    2
  9
$DIMLWD
 70
   -2
  9
$DIMLWE
 70
   -2
  9
$DIMTMOVE
 70
    0
  9
$DIMFXL
 40
1
  9
$DIMFXLON
 70
    0
  9
$DIMJOGANG
 40
0.7854
  9
$DIMTFILL
 70
    0
  9
$DIMTFILLCLR
 70
    0
  9
$DIMARCSYM
 70
    0
  9
$DIMLTYPE
  6

  9
$DIMLTEX1
  6

  9
$DIMLTEX2
  6

  9
$LUNITS
 70
    2
  9
$LUPREC
 70
    4
  9
$SKETCHINC
 40
1
  9
$FILLETRAD
 40
0
  9
$AUNITS
 70
    0
  9
$AUPREC
 70
    2
  9
$MENU
  1
.
  9
$ELEVATION
 40
0
  9
$PELEVATION
 40
0
  9
$THICKNESS
 40
0
  9
$LIMCHECK
 70
    0
  9
$CHAMFERA
 40
0
  9
$CHAMFERB
 40
0
  9
$CHAMFERC
 40
0
  9
$CHAMFERD
 40
0
  9
$SKPOLY
 70
    0
  9
$USRTIMER
 70
    1
  9
$ANGBASE
 50
0
  9
$ANGDIR
 70
    0
  9
$PDMODE
 70
   34
  9
$PDSIZE
 40
0
  9
$PLINEWID
 40
0
  9
$SPLFRAME
 70
    0
  9
$SPLINETYPE
 70
    2
  9
$SPLINESEGS
 70
    8
  9
$HANDSEED
  5
20000
  9
$SURFTAB1
 70
    6
  9
$SURFTAB2
 70
    6
  9
$SURFTYPE
 70
    6
  9
$SURFU
 70
    6
  9
$SURFV
 70
    6
  9
$UCSBASE
  2

  9
$UCSNAME
  2

  9
$UCSORG
 10
0
 20
0
 30
0
  9
$UCSXDIR
 10
1
 20
0
 30
0
  9
$UCSYDIR
 10
0
 20
1
 30
0
  9
$UCSORTHOREF
  2

  9
$UCSORTHOVIEW
 70
    0
  9
$UCSORGTOP
 10
0
 20
0
 30
0
  9
$UCSORGBOTTOM
 10
0
 20
0
 30
0
  9
$UCSORGLEFT
 10
0
 20
0
 30
0
  9
$UCSORGRIGHT
 10
0
 20
0
 30
0
  9
$UCSORGFRONT
 10
0
 20
0
 30
0
  9
$UCSORGBACK
 10
0
 20
0
 30
0
  9
$PUCSBASE
  2

  9
$PUCSNAME
  2

  9
$PUCSORG
 10
0
 20
0
 30
0
  9
$PUCSXDIR
 10
1
 20
0
 30
0
  9
$PUCSYDIR
 10
0
 20
1
 30
0
  9
$PUCSORTHOREF
  2

  9
$PUCSORTHOVIEW
 70
    0
  9
$PUCSORGTOP
 10
0
 20
0
 30
0
  9
$PUCSORGBOTTOM
 10
0
 20
0
 30
0
  9
$PUCSORGLEFT
 10
0
 20
0
 30
0
  9
$PUCSORGRIGHT
 10
0
 20
0
 30
0
  9
$PUCSORGFRONT
 10
0
 20
0
 30
0
  9
$PUCSORGBACK
 10
0
 20
0
 30
0
  9
$USERI1
 70
    0
  9
$USERI2
 70
    0
  9
$USERI3
 70
    0
  9
$USERI4
 70
    0
  9
$USERI5
 70
    0
  9
$USERR1
 40
0
  9
$USERR2
 40
0
  9
$USERR3
 40
0
  9
$USERR4
 40
0
  9
$USERR5
 40
0
  9
$WORLDVIEW
 70
    1
  9
$SHADEDGE
 70
    3
  9
$SHADEDIF
 70
   70
  9
$TILEMODE
 70
    1
  9
$MAXACTVP
 70
   64
  9
$PINSBASE
 10
12.5
 20
17.67857142857144
 30
0
  9
$PLIMCHECK
 70
    0
  9
$PEXTMIN
 10
0
 20
0
 30
0
  9
$PEXTMAX
 10
0
 20
0
 30
0
  9
$GRIDMODE
 70
    1
  9
$SNAPSTYLE
 70
    0
  9
$GRIDUNIT
 10
0
 20
0
  9
$PLIMMIN
 10
0
 20
0
  9
$PLIMMAX
 10
210
 20
297
  9
$UNITMODE
 70
    0
  9
$VISRETAIN
 70
    1
  9
$PLINEGEN
 70
    0
  9
$PSLTSCALE
 70
    1
  9
$TREEDEPTH
 70
 3020
  9
$CMLSTYLE
  2
Standard
  9
$CMLJUST
 70
    0
  9
$CMLSCALE
 40
20
  9
$PROXYGRAPHICS
 70
    1
  9
$MEASUREMENT
 70
    1
  9
$CELWEIGHT
370
   -1
  9
$ENDCAPS
280
    0
  9
$JOINSTYLE
280
    0
  9
$LWDISPLAY
290
    0
  9
$INSUNITS
 70
    0
  9
$HYPERLINKBASE
  1

  9
$STYLESHEET
  1

  9
$XEDIT
290
    1
  9
$CEPSNTYPE
380
    0
  9
$PSTYLEMODE
290
    1
  9
$EXTNAMES
290
    1
  9
$PSVPSCALE
 40
0.8809486054583575
  9
$OLESTARTUP
290
    0
  9
$SORTENTS
280
  127
  9
$INDEXCTL
280
    0
  9
$HIDETEXT
280
    1
  9
$XCLIPFRAME
290
    0
  9
$HALOGAP
280
    0
  9
$OBSCOLOR
 70
  257
  9
$OBSLTYPE
280
    0
  9
$INTERSECTIONDISPLAY
280
    0
  9
$INTERSECTIONCOLOR
 70
  257
  9
$DIMASSOC
280
    1
  9
$PROJECTNAME
  1

  9
$CAMERADISPLAY
290
    0
  9
$LENSLENGTH
 40
50
  9
$CAMERAHEIGHT
 40
0
  9
$STEPSPERSEC
 40
2
  9
$STEPSIZE
 40
50
  9
$3DDWFPREC
 40
2
  9
$PSOLWIDTH
 40
5
  9
$PSOLHEIGHT
 40
80
  9
$LOFTANG1
 40
1.570796326794897
  9
$LOFTANG2
 40
1.570796326794897
  9
$LOFTMAG1
 40
0
  9
$LOFTMAG2
 40
0
  9
$LOFTPARAM
 70
    7
  9
$LOFTNORMALS
280
    1
  9
$LATITUDE
 40
1
  9
$LONGITUDE
 40
1
  9
$NORTHDIRECTION
 40
0
  9
$TIMEZONE
 70
-8000
  9
$LIGHTGLYPHDISPLAY
280
    1
  9
$TILEMODELIGHTSYNCH
280
    1
  9
$SOLIDHIST
280
    1
  9
$SHOWHIST
280
    1
  9
$DWFFRAME
280
    2
  9
$DGNFRAME
280
    0
  9
$REALWORLDSCALE
290
    1
  9
$INTERFERECOLOR
 62
    1
  9
$CSHADOW
280
    0
  9
$SHADOWPLANELOCATION
 40
0
  0
ENDSEC
  0
SECTION
  2
CLASSES
  0
ENDSEC
  0
SECTION
  2
TABLES
  0
TABLE
  2
VPORT
  5
8
330
0
100
AcDbSymbolTable
 70
    1
  0
VPORT
  5
31
330
2
100
AcDbSymbolTableRecord
100
AcDbViewportTableRecord
  2
*ACTIVE
 70
    0
 10
0
 20
0
 11
1
 21
1
 12
167.3698279117669
 22
144.3410555209587
 13
0
 23
0
 14
10
 24
10
 15
10
 25
10
 16
0
 26
0
 36
1
 17
0
 27
0
 37
0
 40
235.2224608489697
 41
1.805361305361305
 42
50
 43
0
 44
0
 50
0
 51
0
 71
    0
 72
  100
 73
    1
 74
    3
 75
    0
 76
    1
 77
    0
 78
    0
281
    0
 65
    1
110
0
120
0
130
0
111
1
121
0
131
0
112
0
122
1
132
0
 79
    0
146
0
348
10020
 60
    7
 61
    5
292
1
282
    1
141
0
142
0
 63
  250
421
3358443
  0
ENDTAB
  0
TABLE
  2
LTYPE
  5
5
330
0
100
AcDbSymbolTable
 70
    4
  0
LTYPE
  5
14
330
5
100
AcDbSymbolTableRecord
100
AcDbLinetypeTableRecord
  2
ByBlock
 70
    0
  3

 72
   65
 73
    0
 40
0
  0
LTYPE
  5
15
330
5
100
AcDbSymbolTableRecord
100
AcDbLinetypeTableRecord
  2
ByLayer
 70
    0
  3

 72
   65
 73
    0
 40
0
  0
LTYPE
  5
16
330
5
100
AcDbSymbolTableRecord
100
AcDbLinetypeTableRecord
  2
Continuous
 70
    0
  3
Solid line
 72
   65
 73
    0
 40
0
  0
LTYPE
  5
32
330
5
100
AcDbSymbolTableRecord
100
AcDbLinetypeTableRecord
  2
DOT
 70
    0
  3
Dot . . . . . . . . . . . . . . . . . . . . . .
 72
   65
 73
    2
 40
6.35
 49
0
 74
    0
 49
-6.35
 74
    0
  0
LTYPE
  5
33
330
5
100
AcDbSymbolTableRecord
100
AcDbLinetypeTableRecord
  2
DOTTINY
 70
    0
  3
Dot (.15x) .....................................
 72
   65
 73
    2
 40
0.9525
 49
0
 74
    0
 49
-0.9525
 74
    0
  0
LTYPE
  5
34
330
5
100
AcDbSymbolTableRecord
100
AcDbLinetypeTableRecord
  2
DOT2
 70
    0
  3
Dot (.5x) .....................................
 72
   65
 73
    2
 40
3.175
 49
0
 74
    0
 49
-3.175
 74
    0
  0
LTYPE
  5
35
330
5
100
AcDbSymbolTableRecord
100
AcDbLinetypeTableRecord
  2
DOTX2
 70
    0
  3
Dot (2x) .  .  .  .  .  .  .  .  .  .  .  .  .
 72
   65
 73
    2
 40
12.7
 49
0
 74
    0
 49
-12.7
 74
    0
  0
LTYPE
  5
36
330
5
100
AcDbSymbolTableRecord
100
AcDbLinetypeTableRecord
  2
DASHED
 70
    0
  3
Dashed _ _ _ _ _ _ _ _ _ _ _ _ _ _ _ _ _
 72
   65
 73
    2
 40
19.05
 49
12.7
 74
    0
 49
-6.35
 74
    0
  0
LTYPE
  5
37
330
5
100
AcDbSymbolTableRecord
100
AcDbLinetypeTableRecord
  2
DASHEDTINY
 70
    0
  3
Dashed (.15x) _ _ _ _ _ _ _ _ _ _ _ _ _ _ _ _ _
 72
   65
 73
    2
 40
2.8575
 49
1.905
 74
    0
 49
-0.9525
 74
    0
  0
LTYPE
  5
38
330
5
100
AcDbSymbolTableRecord
100
AcDbLinetypeTableRecord
  2
DASHED2
 70
    0
  3
Dashed (.5x) _ _ _ _ _ _ _ _ _ _ _ _ _ _ _ _ _
 72
   65
 73
    2
 40
9.524999999999999
 49
6.35
 74
    0
 49
-3.175
 74
    0
  0
LTYPE
  5
39
330
5
100
AcDbSymbolTableRecord
100
AcDbLinetypeTableRecord
  2
DASHEDX2
 70
    0
  3
Dashed (2x) ____  ____  ____  ____  ____  ___
 72
   65
 73
    2
 40
38.09999999999999
 49
25.4
 74
    0
 49
-12.7
 74
    0
  0
LTYPE
  5
3A
330
5
100
AcDbSymbolTableRecord
100
AcDbLinetypeTableRecord
  2
DASHDOT
 70
    0
  3
Dash dot __ . __ . __ . __ . __ . __ . __ . __
 72
   65
 73
    4
 40
25.4
 49
12.7
 74
    0
 49
-6.35
 74
    0
 49
0
 74
    0
 49
-6.35
 74
    0
  0
LTYPE
  5
3B
330
5
100
AcDbSymbolTableRecord
100
AcDbLinetypeTableRecord
  2
DASHDOTTINY
 70
    0
  3
Dash dot (.15x) _._._._._._._._._._._._._._._.
 72
   65
 73
    4
 40
3.81
 49
1.905
 74
    0
 49
-0.9525
 74
    0
 49
0
 74
    0
 49
-0.9525
 74
    0
  0
LTYPE
  5
3C
330
5
100
AcDbSymbolTableRecord
100
AcDbLinetypeTableRecord
  2
DASHDOT2
 70
    0
  3
Dash dot (.5x) _._._._._._._._._._._._._._._.
 72
   65
 73
    4
 40
12.7
 49
6.35
 74
    0
 49
-3.175
 74
    0
 49
0
 74
    0
 49
-3.175
 74
    0
  0
LTYPE
  5
3D
330
5
100
AcDbSymbolTableRecord
100
AcDbLinetypeTableRecord
  2
DASHDOTX2
 70
    0
  3
Dash dot (2x) ____  .  ____  .  ____  .  ___
 72
   65
 73
    4
 40
50.8
 49
25.4
 74
    0
 49
-12.7
 74
    0
 49
0
 74
    0
 49
-12.7
 74
    0
  0
LTYPE
  5
3E
330
5
100
AcDbSymbolTableRecord
100
AcDbLinetypeTableRecord
  2
DIVIDE
 70
    0
  3
Divide ____ . . ____ . . ____ . . ____ . . ____
 72
   65
 73
    6
 40
31.75
 49
12.7
 74
    0
 49
-6.35
 74
    0
 49
0
 74
    0
 49
-6.35
 74
    0
 49
0
 74
    0
 49
-6.35
 74
    0
  0
LTYPE
  5
3F
330
5
100
AcDbSymbolTableRecord
100
AcDbLinetypeTableRecord
  2
DIVIDETINY
 70
    0
  3
Divide (.15x) __..__..__..__..__..__..__..__.._
 72
   65
 73
    6
 40
4.7625
 49
1.905
 74
    0
 49
-0.9525
 74
    0
 49
0
 74
    0
 49
-0.9525
 74
    0
 49
0
 74
    0
 49
-0.9525
 74
    0
  0
LTYPE
  5
40
330
5
100
AcDbSymbolTableRecord
100
AcDbLinetypeTableRecord
  2
DIVIDE2
 70
    0
  3
Divide (.5x) __..__..__..__..__..__..__..__.._
 72
   65
 73
    6
 40
15.875
 49
6.35
 74
    0
 49
-3.175
 74
    0
 49
0
 74
    0
 49
-3.175
 74
    0
 49
0
 74
    0
 49
-3.175
 74
    0
  0
LTYPE
  5
41
330
5
100
AcDbSymbolTableRecord
100
AcDbLinetypeTableRecord
  2
DIVIDEX2
 70
    0
  3
Divide (2x) ________  .  .  ________  .  .  _
 72
   65
 73
    6
 40
63.5
 49
25.4
 74
    0
 49
-12.7
 74
    0
 49
0
 74
    0
 49
-12.7
 74
    0
 49
0
 74
    0
 49
-12.7
 74
    0
  0
LTYPE
  5
42
330
5
100
AcDbSymbolTableRecord
100
AcDbLinetypeTableRecord
  2
BORDER
 70
    0
  3
Border __ __ . __ __ . __ __ . __ __ . __ __ .
 72
   65
 73
    6
 40
44.45
 49
12.7
 74
    0
 49
-6.35
 74
    0
 49
12.7
 74
    0
 49
-6.35
 74
    0
 49
0
 74
    0
 49
-6.35
 74
    0
  0
LTYPE
  5
43
330
5
100
AcDbSymbolTableRecord
100
AcDbLinetypeTableRecord
  2
BORDERTINY
 70
    0
  3
Border (.15x) __.__.__.__.__.__.__.__.__.__.__.
 72
   65
 73
    6
 40
6.6675
 49
1.905
 74
    0
 49
-0.9525
 74
    0
 49
1.905
 74
    0
 49
-0.9525
 74
    0
 49
0
 74
    0
 49
-0.9525
 74
    0
  0
LTYPE
  5
44
330
5
100
AcDbSymbolTableRecord
100
AcDbLinetypeTableRecord
  2
BORDER2
 70
    0
  3
Border (.5x) __.__.__.__.__.__.__.__.__.__.__.
 72
   65
 73
    6
 40
22.225
 49
6.35
 74
    0
 49
-3.175
 74
    0
 49
6.35
 74
    0
 49
-3.175
 74
    0
 49
0
 74
    0
 49
-3.175
 74
    0
  0
LTYPE
  5
45
330
5
100
AcDbSymbolTableRecord
100
AcDbLinetypeTableRecord
  2
BORDERX2
 70
    0
  3
Border (2x) ____  ____  .  ____  ____  .  ___
 72
   65
 73
    6
 40
88.89999999999999
 49
25.4
 74
    0
 49
-12.7
 74
    0
 49
25.4
 74
    0
 49
-12.7
 74
    0
 49
0
 74
    0
 49
-12.7
 74
    0
  0
LTYPE
  5
46
330
5
100
AcDbSymbolTableRecord
100
AcDbLinetypeTableRecord
  2
CENTER
 70
    0
  3
Center ____ _ ____ _ ____ _ ____ _ ____ _ ____
 72
   65
 73
    4
 40
50.8
 49
31.75
 74
    0
 49
-6.35
 74
    0
 49
6.35
 74
    0
 49
-6.35
 74
    0
  0
LTYPE
  5
47
330
5
100
AcDbSymbolTableRecord
100
AcDbLinetypeTableRecord
  2
CENTERTINY
 70
    0
  3
Center (.15x) ___ _ ___ _ ___ _ ___ _ ___ _ ___
 72
   65
 73
    4
 40
7.62
 49
4.7625
 74
    0
 49
-0.9525
 74
    0
 49
0.9525
 74
    0
 49
-0.9525
 74
    0
  0
LTYPE
  5
48
330
5
100
AcDbSymbolTableRecord
100
AcDbLinetypeTableRecord
  2
CENTER2
 70
    0
  3
Center (.5x) ___ _ ___ _ ___ _ ___ _ ___ _ ___
 72
   65
 73
    4
 40
28.575
 49
19.05
 74
    0
 49
-3.175
 74
    0
 49
3.175
 74
    0
 49
-3.175
 74
    0
  0
LTYPE
  5
49
330
5
100
AcDbSymbolTableRecord
100
AcDbLinetypeTableRecord
  2
CENTERX2
 70
    0
  3
Center (2x) ________  __  ________  __  _____
 72
   65
 73
    4
 40
101.6
 49
63.5
 74
    0
 49
-12.7
 74
    0
 49
12.7
 74
    0
 49
-12.7
 74
    0
  0
ENDTAB
  0
TABLE
  2
LAYER
  5
2
330
0
100
AcDbSymbolTable
 70
    1
  0
LAYER
  5
10
330
2
100
AcDbSymbolTableRecord
100
AcDbLayerTableRecord
  2
0
 70
    0
 62
    7
  6
CONTINUOUS
370
   35
390
F
  0
LAYER
  5
4A
330
2
100
AcDbSymbolTableRecord
100
AcDbLayerTableRecord
  2
a4frame
 70
    4
 62
    7
  6
CONTINUOUS
370
    0
390
F
  0
LAYER
  5
4B
330
2
100
AcDbSymbolTableRecord
100
AcDbLayerTableRecord
  2
ref
 70
    1
 62
    7
  6
CONTINUOUS
370
    0
390
F
1001
LibreCad
1070
    1
  0
LAYER
  5
4C
330
2
100
AcDbSymbolTableRecord
100
AcDbLayerTableRecord
  2
volo
 70
    4
 62
    7
  6
CONTINUOUS
370
   13
390
F
  0
ENDTAB
  0
TABLE
  2
STYLE
  5
3
330
0
100
AcDbSymbolTable
 70
    3
  0
STYLE
  5
4D
330
2
100
AcDbSymbolTableRecord
100
AcDbTextStyleTableRecord
  2
standard
 70
    0
 40
0
 41
1
 50
0
 71
    0
 42
1
  3
standard
  4

  0
ENDTAB
  0
TABLE
  2
VIEW
  5
6
330
0
100
AcDbSymbolTable
 70
    0
  0
ENDTAB
  0
TABLE
  2
UCS
  5
7
330
0
100
AcDbSymbolTable
 70
    0
  0
ENDTAB
  0
TABLE
  2
APPID
  5
9
330
0
100
AcDbSymbolTable
 70
    1
  0
APPID
  5
12
330
9
100
AcDbSymbolTableRecord
100
AcDbRegAppTableRecord
  2
ACAD
 70
    0
  0
APPID
  5
4E
330
9
100
AcDbSymbolTableRecord
100
AcDbRegAppTableRecord
  2
LibreCad
 70
    0
  0
ENDTAB
  0
TABLE
  2
DIMSTYLE
  5
A
330
0
100
AcDbSymbolTable
 70
    1
100
AcDbDimStyleTable
 71
    1
  0
DIMSTYLE
105
4F
330
A
100
AcDbSymbolTableRecord
100
AcDbDimStyleTableRecord
  2
Standard
 70
    0
 40
2.5
 41
2.5
 42
0.625
 43
0.38
 44
1.25
 45
0
 46
0
 47
0
 48
0
 49
1
140
2.5
141
0.09
142
0
143
25.4
144
1
145
0
146
1
147
0.625
148
0
 71
    0
 72
    0
 73
    0
 74
    1
 75
    0
 76
    0
 77
    0
 78
    8
 79
    0
170
    0
171
    2
172
    0
173
    0
174
    0
175
    0
176
    0
177
    0
178
    0
179
    0
271
    1
272
    4
273
    2
274
    2
275
    0
276
    0
277
    2
278
   44
279
    0
280
    0
281
    0
282
    0
283
    1
284
    0
285
    0
286
    0
288
    0
289
    3
340
standard
341

371
   -2
372
   -2
  0
ENDTAB
  0
TABLE
  2
BLOCK_RECORD
  5
1
330
0
100
AcDbSymbolTable
 70
    2
  0
BLOCK_RECORD
  5
1F
330
1
100
AcDbSymbolTableRecord
100
AcDbBlockTableRecord
  2
*Model_Space
 70
    0
280
    1
281
    0
  0
BLOCK_RECORD
  5
1E
330
1
100
AcDbSymbolTableRecord
100
AcDbBlockTableRecord
  2
*Paper_Space
 70
    0
280
    1
281
    0
  0
BLOCK_RECORD
  5
50
330
1
100
AcDbSymbolTableRecord
100
AcDbBlockTableRecord
  2
*D5
 70
    0
280
    1
281
    0
  0
BLOCK_RECORD
  5
53
330
1
100
AcDbSymbolTableRecord
100
AcDbBlockTableRecord
  2
*D2
 70
    0
280
    1
281
    0
  0
BLOCK_RECORD
  5
56
330
1
100
AcDbSymbolTableRecord
100
AcDbBlockTableRecord
  2
*D3
 70
    0
280
    1
281
    0
  0
BLOCK_RECORD
  5
59
330
1
100
AcDbSymbolTableRecord
100
AcDbBlockTableRecord
  2
*D1
 70
    0
280
    1
281
    0
  0
BLOCK_RECORD
  5
5C
330
1
100
AcDbSymbolTableRecord
100
AcDbBlockTableRecord
  2
*D4
 70
    0
280
    1
281
    0
  0
BLOCK_RECORD
  5
5F
330
1
100
AcDbSymbolTableRecord
100
AcDbBlockTableRecord
  2
*D6
 70
    0
280
    1
281
    0
  0
ENDTAB
  0
ENDSEC
  0
SECTION
  2
BLOCKS
  0
BLOCK
  5
20
330
1F
100
AcDbEntity
  8
0
100
AcDbBlockBegin
  2
*Model_Space
 70
    0
 10
0
 20
0
 30
0
  3
*Model_Space
  1

  0
ENDBLK
  5
21
330
1F
100
AcDbEntity
  8
0
100
AcDbBlockEnd
  0
BLOCK
  5
1C
330
1B
100
AcDbEntity
  8
0
100
AcDbBlockBegin
  2
*Paper_Space
 70
    0
 10
0
 20
0
 30
0
  3
*Paper_Space
  1

  0
ENDBLK
  5
1D
330
1F
100
AcDbEntity
  8
0
100
AcDbBlockEnd
  0
BLOCK
  5
51
330
50
100
AcDbEntity
  8
0
100
AcDbBlockBegin
  2
*D5
 70
    1
 10
0
 20
0
  3
*D5
  1

  0
LINE
  5
62
100
AcDbEntity
  8
volo
  6
ByBlock
 62
    0
370
   -2
100
AcDbLine
 10
71.18098490768119
 20
180.1440568137133
 11
57.03637728381367
 21
113.5989098997082
  0
LINE
  5
63
100
AcDbEntity
  8
volo
  6
ByBlock
 62
    0
370
   -2
100
AcDbLine
 10
168.9957449810618
 20
159.3528877319373
 11
154.8511373571942
 21
92.80774081793216
  0
LINE
  5
64
100
AcDbEntity
  8
volo
  6
ByBlock
 62
    0
370
   -2
100
AcDbLine
 10
57.68610131761918
 20
116.6556211520013
 11
155.5008613909997
 21
95.8644520702253
  0
SOLID
  5
65
100
AcDbEntity
  8
volo
  6
ByBlock
 62
    0
370
   -2
100
AcDbTrace
 10
57.68610131761918
 20
116.6556211520013
 30
0
 11
64.01589993985307
 21
116.3741426824473
 31
0
 12
63.58314770455785
 22
114.3382034863333
 32
0
 13
63.58314770455785
 23
114.3382034863333
 33
0
  0
SOLID
  5
66
100
AcDbEntity
  8
volo
  6
ByBlock
 62
    0
370
   -2
100
AcDbTrace
 10
155.5008613909997
 20
95.8644520702253
 30
0
 11
149.1710627687659
 21
96.14593053977931
 31
0
 12
149.6038150040611
 22
98.1818697358933
 32
0
 13
149.6038150040611
 23
98.1818697358933
 33
0
  0
MTEXT
  5
67
100
AcDbEntity
  8
volo
  6
CONTINUOUS
 62
    0
370
   -2
100
AcDbMText
 10
107.5680674050177
 20
110.845103489553
 30
0
 40
6.25
 41
11.11111111111111
 71
    5
 72
    1
  1
100
  7
standard
210
0
220
0
230
1
 50
347.9999999999999
 73
    2
 44
1
  0
ENDBLK
  5
52
330
50
100
AcDbEntity
  8
0
100
AcDbBlockEnd
  0
BLOCK
  5
54
330
53
100
AcDbEntity
  8
0
100
AcDbBlockBegin
  2
*D2
 70
    1
 10
0
 20
0
  3
*D2
  1

  0
LINE
  5
68
100
AcDbEntity
  8
volo
  6
ByBlock
 62
    0
370
   -2
100
AcDbLine
 10
123.5259847080015
 20
236.3957699947399
 11
123.5259847080015
 21
154.2520360948059
  0
LINE
  5
69
100
AcDbEntity
  8
volo
  6
ByBlock
 62
    0
370
   -2
100
AcDbLine
 10
148.5926120445824
 20
112.2631773639757
 11
137.9569402524214
 21
121.8395792594619
  0
ARC
  5
6A
100
AcDbEntity
  8
volo
  6
ByBlock
 62
    0
370
   -2
100
AcDbCircle
 10
123.5259847080015
 20
134.8332699947399
 40
16.293766100066
100
AcDbArc
 50
318
 51
90
  0
SOLID
  5
6B
100
AcDbEntity
  8
volo
  6
ByBlock
 62
    0
370
   -2
100
AcDbTrace
 10
123.5259847080015
 20
151.1270360948059
 30
0
 11
129.8597649786621
 21
150.9573062805498
 31
0
 12
129.4630092756306
 22
148.9140471634679
 32
0
 13
129.4630092756306
 23
148.9140471634679
 33
0
  0
SOLID
  5
6C
100
AcDbEntity
  8
volo
  6
ByBlock
 62
    0
370
   -2
100
AcDbTrace
 10
135.6346126728045
 20
123.9306124043333
 30
0
 11
137.9626862485471
 21
129.8234601159907
 31
0
 12
139.7466050726618
 22
128.7510998517159
 32
0
 13
139.7466050726618
 23
128.7510998517159
 33
0
  0
MTEXT
  5
6D
100
AcDbEntity
  8
volo
  6
CONTINUOUS
 62
    0
370
   -2
100
AcDbMText
 10
139.8384954941743
 20
142.096067726149
 30
0
 40
6.25
 41
15.27777777777817
 71
    8
 72
    1
  1
132%%D
  7
standard
210
0
220
0
230
1
 50
293.9999999999999
 73
    2
 44
1
  0
ENDBLK
  5
55
330
53
100
AcDbEntity
  8
0
100
AcDbBlockEnd
  0
BLOCK
  5
57
330
56
100
AcDbEntity
  8
0
100
AcDbBlockBegin
  2
*D3
 70
    1
 10
0
 20
0
  3
*D3
  1

  0
LINE
  5
6E
100
AcDbEntity
  8
volo
  6
ByBlock
 62
    0
370
   -2
100
AcDbLine
 10
70.46033108790247
 20
180.5112479875753
 11
13.43818976914326
 21
117.1817442166026
  0
LINE
  5
6F
100
AcDbEntity
  8
volo
  6
ByBlock
 62
    0
370
   -2
100
AcDbLine
 10
122.4804681355658
 20
133.6721062049314
 11
65.45832681680656
 21
70.34260243395866
  0
LINE
  5
70
100
AcDbEntity
  8
volo
  6
ByBlock
 62
    0
370
   -2
100
AcDbLine
 10
15.52922291401469
 20
119.5040717962194
 11
67.54935996167799
 21
72.66493001357551
  0
SOLID
  5
71
100
AcDbEntity
  8
volo
  6
ByBlock
 62
    0
370
   -2
100
AcDbTrace
 10
15.52922291401469
 20
119.5040717962194
 30
0
 11
20.87025008693198
 21
116.0954049798503
 31
0
 12
19.47750605956483
 22
114.5486060331028
 32
0
 13
19.47750605956483
 23
114.5486060331028
 33
0
  0
SOLID
  5
72
100
AcDbEntity
  8
volo
  6
ByBlock
 62
    0
370
   -2
100
AcDbTrace
 10
67.54935996167799
 20
72.66493001357551
 30
0
 11
62.2083327887607
 21
76.07359682994459
 31
0
 12
63.60107681612786
 22
77.62039577669216
 32
0
 13
63.60107681612786
 23
77.62039577669216
 33
0
  0
MTEXT
  5
73
100
AcDbEntity
  8
volo
  6
CONTINUOUS
 62
    0
370
   -2
100
AcDbMText
 10
44.67584115515349
 20
99.56799227432275
 30
0
 40
6.25
 41
7.638888888888888
 71
    5
 72
    1
  1
70
  7
standard
210
0
220
0
230
1
 50
318
 73
    2
 44
1
  0
ENDBLK
  5
58
330
56
100
AcDbEntity
  8
0
100
AcDbBlockEnd
  0
BLOCK
  5
5A
330
59
100
AcDbEntity
  8
0
100
AcDbBlockBegin
  2
*D1
 70
    1
 10
0
 20
0
  3
*D1
  1

  0
LINE
  5
74
100
AcDbEntity
  8
volo
  6
ByBlock
 62
    0
370
   -2
100
AcDbLine
 10
169.320606997964
 20
262.443743358084
 11
169.320606997964
 21
192.0797487325315
  0
LINE
  5
75
100
AcDbEntity
  8
volo
  6
ByBlock
 62
    0
370
   -2
100
AcDbLine
 10
79.4594068450851
 20
197.2888265486358
 11
140.4051918885082
 21
172.5964260987535
  0
ARC
  5
76
100
AcDbEntity
  8
volo
  6
ByBlock
 62
    0
370
   -2
100
AcDbCircle
 10
169.320606997964
 20
160.8812433580841
 40
28.07350537444741
100
AcDbArc
 50
90
 51
157.9444954633743
  0
SOLID
  5
77
100
AcDbEntity
  8
volo
  6
ByBlock
 62
    0
370
   -2
100
AcDbTrace
 10
169.320606997964
 20
188.9547487325315
 30
0
 11
163.2248965797986
 21
187.2261958045808
 31
0
 12
162.9936813029785
 22
189.2947369337807
 32
0
 13
162.9936813029785
 23
189.2947369337807
 33
0
  0
SOLID
  5
78
100
AcDbEntity
  8
volo
  6
ByBlock
 62
    0
370
   -2
100
AcDbTrace
 10
143.3015060270393
 20
171.4229741777337
 30
0
 11
145.3621877795892
 21
177.4145659062783
 31
0
 12
147.1925317501111
 22
176.423524102417
 32
0
 13
147.1925317501111
 23
176.423524102417
 33
0
  0
MTEXT
  5
79
100
AcDbEntity
  8
volo
  6
CONTINUOUS
 62
    0
370
   -2
100
AcDbMText
 10
152.760265672856
 20
185.4586295036895
 30
0
 40
6.25
 41
11.80555555555594
 71
    8
 72
    1
  1
68%%D
  7
standard
210
0
220
0
230
1
 50
393.9722477316872
 73
    2
 44
1
  0
ENDBLK
  5
5B
330
59
100
AcDbEntity
  8
0
100
AcDbBlockEnd
  0
BLOCK
  5
5D
330
5C
100
AcDbEntity
  8
0
100
AcDbBlockBegin
  2
*D4
 70
    1
 10
0
 20
0
  3
*D4
  1

  0
LINE
  5
7A
100
AcDbEntity
  8
volo
  6
ByBlock
 62
    0
370
   -2
100
AcDbLine
 10
81.49429146003312
 20
198.1502570151531
 11
108.2796749440445
 21
264.261942974385
  0
LINE
  5
7B
100
AcDbEntity
  8
volo
  6
ByBlock
 62
    0
370
   -2
100
AcDbLine
 10
169.9073329584744
 20
162.3294004273494
 11
196.6927164424858
 21
228.4410863865813
  0
LINE
  5
7C
100
AcDbEntity
  8
volo
  6
ByBlock
 62
    0
370
   -2
100
AcDbLine
 10
107.1062230230247
 20
261.365628835854
 11
195.519264521466
 21
225.5447722480503
  0
SOLID
  5
7D
100
AcDbEntity
  8
volo
  6
ByBlock
 62
    0
370
   -2
100
AcDbTrace
 10
107.1062230230247
 20
261.365628835854
 30
0
 11
113.2896433251705
 21
259.9832779057832
 31
0
 12
112.5080592750031
 22
258.0541720818455
 32
0
 13
112.5080592750031
 23
258.0541720818455
 33
0
  0
SOLID
  5
7E
100
AcDbEntity
  8
volo
  6
ByBlock
 62
    0
370
   -2
100
AcDbTrace
 10
195.519264521466
 20
225.5447722480503
 30
0
 11
189.3358442193202
 21
226.927123178121
 31
0
 12
190.1174282694875
 22
228.8562290020587
 32
0
 13
190.1174282694875
 23
228.8562290020587
 33
0
  0
MTEXT
  5
7F
100
AcDbEntity
  8
volo
  6
CONTINUOUS
 62
    0
370
   -2
100
AcDbMText
 10
153.072921653775
 20
247.7996717497487
 30
0
 40
6.25
 41
15.62500000000078
 71
    5
 72
    1
  1
95,4
  7
standard
210
0
220
0
230
1
 50
337.9444954633743
 73
    2
 44
1
  0
ENDBLK
  5
5E
330
5C
100
AcDbEntity
  8
0
100
AcDbBlockEnd
  0
BLOCK
  5
60
330
5F
100
AcDbEntity
  8
0
100
AcDbBlockBegin
  2
*D6
 70
    1
 10
0
 20
0
  3
*D6
  1

  0
LINE
  5
80
100
AcDbEntity
  8
volo
  6
ByBlock
 62
    0
370
   -2
100
AcDbLine
 10
170.848962624111
 20
160.5563813411812
 11
191.9519145345646
 21
156.0708104420074
  0
LINE
  5
81
100
AcDbEntity
  8
volo
  6
ByBlock
 62
    0
370
   -2
100
AcDbLine
 10
124.6871484978099
 20
133.7877534223041
 11
163.014400261839
 21
99.27774092715087
  0
ARC
  5
82
100
AcDbEntity
  8
volo
  6
ByBlock
 62
    0
370
   -2
100
AcDbCircle
 10
71.50584692458389
 20
181.67241243986
 40
120.0119044095412
100
AcDbArc
 50
318
 51
348
  0
SOLID
  5
83
100
AcDbEntity
  8
volo
  6
ByBlock
 62
    0
370
   -2
100
AcDbTrace
 10
188.8952032822715
 20
156.7205344758129
 30
0
 11
188.4490167036291
 21
150.4002102543907
 31
0
 12
186.4250348846147
 22
150.8858237876918
 32
0
 13
186.4250348846147
 23
150.8858237876918
 33
0
  0
SOLID
  5
84
100
AcDbEntity
  8
volo
  6
ByBlock
 62
    0
370
   -2
100
AcDbTrace
 10
160.6920726822221
 20
101.3687740720223
 30
0
 11
163.9605242313516
 21
106.7967391785654
 31
0
 12
165.5430604966155
 22
105.4447399638648
 32
0
 13
165.5430604966155
 23
105.4447399638648
 33
0
  0
MTEXT
  5
85
100
AcDbEntity
  8
volo
  6
CONTINUOUS
 62
    0
370
   -2
100
AcDbMText
 10
177.0450390397116
 20
127.8975081381206
 30
0
 40
6.25
 41
11.80555555555594
 71
    8
 72
    1
  1
30%%D
  7
standard
210
0
220
0
230
1
 50
63
 73
    2
 44
1
  0
ENDBLK
  5
61
330
5F
100
AcDbEntity
  8
0
100
AcDbBlockEnd
  0
ENDSEC
  0
SECTION
  2
ENTITIES
  0
LWPOLYLINE
  5
86
100
AcDbEntity
  8
a4frame
  6
ByLayer
 62
  256
370
   -1
100
AcDbPolyline
 90
    4
 70
    1
 43
0
 10
10
 20
10
 10
200
 20
10
 10
200
 20
287
 10
10
 20
287
  0
LINE
  5
87
100
AcDbEntity
  8
ref
  6
ByLayer
 62
  256
370
   -1
100
AcDbLine
 10
140
 20
120
 11
147.431448254774
 21
113.3086939364114
  0
LINE
  5
88
100
AcDbEntity
  8
ref
  6
ByLayer
 62
  256
370
   -1
100
AcDbLine
 10
63.30869393641142
 20
172.568551745226
 11
76.69130606358858
 21
187.431448254774
  0
LINE
  5
89
100
AcDbEntity
  8
0
  6
ByLayer
 62
  256
370
   -1
100
AcDbLine
 10
71.50584692458389
 20
181.6724124398599
 11
123.5259847080015
 21
134.8332699947399
  0
LINE
  5
8A
100
AcDbEntity
  8
volo
  6
ByLayer
 62
  256
370
   -1
100
AcDbLine
 10
71.50584692458389
 20
181.6724124398599
 11
169.3206069979644
 21
160.8812433580839
  0
CIRCLE
  5
8B
100
AcDbEntity
  8
ref
  6
ByLayer
 62
  256
370
   -1
100
AcDbCircle
 10
71.50584692458389
 20
181.6724124398599
 40
9
  0
LINE
  5
8C
100
AcDbEntity
  8
ref
  6
ByLayer
 62
  256
370
   -1
100
AcDbLine
 10
146.0221754572297
 20
126.6883034292966
 11
153.4536237120037
 21
119.996997365708
  0
LINE
  5
8D
100
AcDbEntity
  8
ref
  6
ByLayer
 62
  256
370
   -1
100
AcDbLine
 10
133.9778245427703
 20
113.3116965707035
 11
141.4092727975442
 21
106.6203905071149
  0
CIRCLE
  5
8E
100
AcDbEntity
  8
0
  6
ByLayer
 62
  256
370
   -1
100
AcDbCircle
 10
77.52802238181359
 20
188.3607158691565
 40
9
  0
LINE
  5
8F
100
AcDbEntity
  8
0
  6
ByLayer
 62
  256
370
   -1
100
AcDbLine
 10
80.90756391435062
 20
196.7021005881259
 11
169.3206069979644
 21
160.8812433580839
  0
LINE
  5
90
100
AcDbEntity
  8
volo
  6
ByLayer
 62
  256
370
   -1
100
AcDbLine
 10
80.90756264815042
 20
196.7021011011314
 11
77.52802238181359
 21
188.3607158691565
  0
LINE
  5
91
100
AcDbEntity
  8
volo
  6
ByLayer
 62
  256
370
   -1
100
AcDbLine
 10
77.52802238181359
 20
188.3607158691565
 11
71.50584692458347
 21
181.6724124398594
  0
LINE
  5
92
100
AcDbEntity
  8
volo
  6
ByLayer
 62
  256
370
   -1
100
AcDbLine
 10
71.50584692458347
 20
181.6724124398594
 11
77.52802238181359
 21
188.3607158691565
  0
LINE
  5
93
100
AcDbEntity
  8
volo
  6
ByLayer
 62
  256
370
   -1
100
AcDbLine
 10
77.52802238181359
 20
188.3607158691565
 11
169.3206069979644
 21
160.881243358084
  0
LINE
  5
94
100
AcDbEntity
  8
ref
  6
ByLayer
 62
  256
370
   -1
100
AcDbLine
 10
169.320606997964
 20
160.881243358084
 11
169.320606997964
 21
260.881243358084
  0
DIMENSION
  5
95
100
AcDbEntity
  8
volo
  6
ByLayer
 62
  256
370
   -1
100
AcDbDimension
  2
*D1
 10
80.90756391435062
 20
196.7021005881259
 30
0
 11
0
 21
0
 31
0
 70
   34
 71
    5
  3
Standard
 53
0
210
0
220
0
230
1
100
AcDb2LineAngularDimension
 13
169.320606997964
 23
160.881243358084
 33
0
 14
169.320606997964
 24
260.881243358084
 34
0
 15
169.3206069979644
 25
160.8812433580839
 35
0
 16
143.3015060270393
 26
171.4229741777337
 36
0
  0
LINE
  5
96
100
AcDbEntity
  8
ref
  6
ByLayer
 62
  256
370
   -1
100
AcDbLine
 10
123.5259847080015
 20
134.8332699947399
 11
123.5259847080015
 21
234.8332699947399
  0
LINE
  5
97
100
AcDbEntity
  8
ref
  6
ByLayer
 62
  256
370
   -1
100
AcDbLine
 10
71.50584692458347
 20
181.6724124398594
 11
71.50584692458347
 21
281.6724124398594
  0
LINE
  5
98
100
AcDbEntity
  8
ref
  6
ByLayer
 62
  256
370
   -1
100
AcDbLine
 10
77.52802238181381
 20
188.3607158691564
 11
77.52802238181381
 21
288.3607158691564
  0
DIMENSION
  5
99
100
AcDbEntity
  8
volo
  6
ByLayer
 62
  256
370
   -1
100
AcDbDimension
  2
*D2
 10
147.431448254774
 20
113.3086939364114
 30
0
 11
0
 21
0
 31
0
 70
   34
 71
    5
  3
Standard
 53
0
210
0
220
0
230
1
100
AcDb2LineAngularDimension
 13
123.5259847080015
 23
134.8332699947399
 33
0
 14
123.5259847080015
 24
234.8332699947399
 34
0
 15
140
 25
120
 35
0
 16
139.641993353256
 26
132.4330451990712
 36
0
  0
DIMENSION
  5
9A
100
AcDbEntity
  8
volo
  6
ByLayer
 62
  256
370
   -1
100
AcDbDimension
  2
*D3
 10
67.54935996167801
 20
72.66493001357549
 30
0
 11
44.67584115515349
 21
99.56799227432275
 31
0
 70
   33
 71
    5
  3
Standard
 53
0
210
0
220
0
230
1
100
AcDbAlignedDimension
 13
71.50584766033819
 23
181.6724117773838
 33
0
 14
123.5259847080015
 24
134.8332699947399
 34
0
  0
DIMENSION
  5
9B
100
AcDbEntity
  8
volo
  6
ByLayer
 62
  256
370
   -1
100
AcDbDimension
  2
*D4
 10
195.519264521466
 20
225.5447722480502
 30
0
 11
153.072921653775
 21
247.7996717497487
 31
0
 70
   33
 71
    5
  3
Standard
 53
0
210
0
220
0
230
1
100
AcDbAlignedDimension
 13
80.90756549952323
 23
196.7020999458876
 33
0
 14
169.3206069979645
 24
160.8812433580839
 34
0
  0
DIMENSION
  5
9C
100
AcDbEntity
  8
volo
  6
ByLayer
 62
  256
370
   -1
100
AcDbDimension
  2
*D5
 10
155.5008613909997
 20
95.8644520702253
 30
0
 11
107.5680674050177
 21
110.845103489553
 31
0
 70
   33
 71
    5
  3
Standard
 53
0
210
0
220
0
230
1
100
AcDbAlignedDimension
 13
71.50584692458395
 23
181.6724124398599
 33
0
 14
169.3206069979645
 24
160.8812433580839
 34
0
  0
DIMENSION
  5
9D
100
AcDbEntity
  8
volo
  6
ByLayer
 62
  256
370
   -1
100
AcDbDimension
  2
*D6
 10
123.5259847080015
 20
134.8332699947399
 30
0
 11
0
 21
0
 31
0
 70
   34
 71
    5
  3
Standard
 53
0
210
0
220
0
230
1
100
AcDb2LineAngularDimension
 13
71.50584692458389
 23
181.6724124398599
 33
0
 14
169.3206069979644
 24
160.8812433580839
 34
0
 15
71.50584692458389
 25
181.6724124398599
 35
0
 16
172.9899449833332
 26
117.6112304244848
 36
0
  0
MTEXT
  5
9E
100
AcDbEntity
  8
volo
  6
ByLayer
 62
  256
370
   -1
100
AcDbMText
 10
176.553921662863
 20
166.4102957288165
 30
0
 40
3.5
 41
2.333333333333333
 71
    1
 72
    1
  1
A
  7
standard
210
0
220
0
230
1
 50
0
 73
    2
 44
1
  0
MTEXT
  5
9F
100
AcDbEntity
  8
volo
  6
ByLayer
 62
  256
370
   -1
100
AcDbMText
 10
76.7625746360274
 20
204.7915830468302
 30
0
 40
3.5
 41
1.555555555555773
 71
    1
 72
    1
  1
C
  7
standard
210
0
220
0
230
1
 50
0
 73
    2
 44
1
  0
MTEXT
  5
A0
100
AcDbEntity
  8
volo
  6
ByLayer
 62
  256
370
   -1
100
AcDbMText
 10
58.94269123837818
 20
182.0369627082935
 30
0
 40
3.5
 41
5.444444444444445
 71
    1
 72
    1
  1
OM
  7
standard
210
0
220
0
230
1
 50
0
 73
    2
 44
1
  0
MTEXT
  5
A1
100
AcDbEntity
  8
volo
  6
ByLayer
 62
  256
370
   -1
100
AcDbMText
 10
73.47275000876908
 20
193.8255009559692
 30
0
 40
3.5
 41
1.944444444444444
 71
    1
 72
    1
  1
P
  7
standard
210
0
220
0
230
1
 50
0
 73
    2
 44
1
  0
MTEXT
  5
A2
100
AcDbEntity
  8
volo
  6
ByLayer
 62
  256
370
   -1
100
AcDbMText
 10
118.9819906858425
 20
122.5459673653723
 30
0
 40
3.5
 41
9.722222222222223
 71
    1
 72
    1
  1
RWY
  7
standard
210
0
220
0
230
1
 50
0
 73
    2
 44
1
  0
ENDSEC
  0
SECTION
  2
OBJECTS
  0
DICTIONARY
  5
C
330
0
100
AcDbDictionary
281
    1
  3
ACAD_GROUP
350
D
  0
DICTIONARY
  5
D
330
C
100
AcDbDictionary
281
    1
  0
ENDSEC
  0
EOF
